<svg width="80" height="31" viewBox="0 0 80 31" fill="none" xmlns="http://www.w3.org/2000/svg">
<path d="M5.46094 10.8516H2.53125V9.16406H5.46094C5.9401 9.16406 6.32812 9.08594 6.625 8.92969C6.92708 8.76823 7.14844 8.54948 7.28906 8.27344C7.42969 7.99219 7.5 7.67188 7.5 7.3125C7.5 6.96354 7.42969 6.63802 7.28906 6.33594C7.14844 6.03385 6.92708 5.78906 6.625 5.60156C6.32812 5.41406 5.9401 5.32031 5.46094 5.32031H3.23438V15H1.08594V3.625H5.46094C6.34635 3.625 7.10156 3.78385 7.72656 4.10156C8.35677 4.41406 8.83594 4.84896 9.16406 5.40625C9.4974 5.95833 9.66406 6.58854 9.66406 7.29688C9.66406 8.03125 9.4974 8.66406 9.16406 9.19531C8.83594 9.72656 8.35677 10.1354 7.72656 10.4219C7.10156 10.7083 6.34635 10.8516 5.46094 10.8516ZM17.6797 3.625H19.8281V11.1797C19.8281 12.0495 19.6406 12.7812 19.2656 13.375C18.8906 13.9635 18.3802 14.4089 17.7344 14.7109C17.0885 15.0078 16.3542 15.1562 15.5312 15.1562C14.6979 15.1562 13.9557 15.0078 13.3047 14.7109C12.6536 14.4089 12.1432 13.9635 11.7734 13.375C11.4036 12.7812 11.2188 12.0495 11.2188 11.1797V3.625H13.3672V11.1797C13.3672 11.7109 13.4557 12.1458 13.6328 12.4844C13.8099 12.8177 14.0599 13.0651 14.3828 13.2266C14.7057 13.388 15.0885 13.4688 15.5312 13.4688C15.9792 13.4688 16.362 13.388 16.6797 13.2266C17.0026 13.0651 17.25 12.8177 17.4219 12.4844C17.5938 12.1458 17.6797 11.7109 17.6797 11.1797V3.625ZM21.8672 3.625H26C26.8646 3.625 27.6068 3.75521 28.2266 4.01562C28.8464 4.27604 29.3229 4.66146 29.6562 5.17188C29.9896 5.68229 30.1562 6.3099 30.1562 7.05469C30.1562 7.64323 30.0521 8.15365 29.8438 8.58594C29.6354 9.01823 29.3411 9.38021 28.9609 9.67188C28.5859 9.96354 28.1432 10.1927 27.6328 10.3594L26.9609 10.7031H23.3125L23.2969 9.00781H26.0234C26.4661 9.00781 26.8333 8.92969 27.125 8.77344C27.4167 8.61719 27.6354 8.40104 27.7812 8.125C27.9323 7.84896 28.0078 7.53385 28.0078 7.17969C28.0078 6.79948 27.9349 6.47135 27.7891 6.19531C27.6432 5.91406 27.4219 5.69792 27.125 5.54688C26.8281 5.39583 26.4531 5.32031 26 5.32031H24.0156V15H21.8672V3.625ZM28.2891 15L25.6562 9.90625L27.9297 9.89844L30.5938 14.8906V15H28.2891ZM34.3281 3.625V15H32.1797V3.625H34.3281ZM45.7891 3.625V15H43.6328L38.7969 7.10938V15H36.6484V3.625H38.7969L43.6484 11.5234V3.625H45.7891ZM52.6406 5.35156L49.3984 15H47.125L51.375 3.625H52.8281L52.6406 5.35156ZM55.3516 15L52.0938 5.35156L51.8984 3.625H53.3594L57.6328 15H55.3516ZM55.2031 10.7734V12.4688H49.1016V10.7734H55.2031ZM67.3125 5.35156L64.0703 15H61.7969L66.0469 3.625H67.5L67.3125 5.35156ZM70.0234 15L66.7656 5.35156L66.5703 3.625H68.0312L72.3047 15H70.0234ZM69.875 10.7734V12.4688H63.7734V10.7734H69.875ZM75.7656 3.625V15H73.6172V3.625H75.7656Z" fill="#003366"/>
<path d="M5.44727 24.2119H3.54785V23.4453H5.44727C5.8151 23.4453 6.11296 23.3867 6.34082 23.2695C6.56868 23.1523 6.7347 22.9896 6.83887 22.7812C6.94629 22.5729 7 22.3353 7 22.0684C7 21.8242 6.94629 21.5947 6.83887 21.3799C6.7347 21.165 6.56868 20.9925 6.34082 20.8623C6.11296 20.7288 5.8151 20.6621 5.44727 20.6621H3.76758V27H2.8252V19.8906H5.44727C5.98438 19.8906 6.43848 19.9834 6.80957 20.1689C7.18066 20.3545 7.46224 20.6117 7.6543 20.9404C7.84635 21.266 7.94238 21.6387 7.94238 22.0586C7.94238 22.5143 7.84635 22.9033 7.6543 23.2256C7.46224 23.5479 7.18066 23.7936 6.80957 23.9629C6.43848 24.1289 5.98438 24.2119 5.44727 24.2119ZM17.1453 26.2334V27H13.5906V26.2334H17.1453ZM13.7762 19.8906V27H12.8338V19.8906H13.7762ZM24.6539 20.5205L22.3004 27H21.3385L24.0484 19.8906H24.6686L24.6539 20.5205ZM26.6266 27L24.2682 20.5205L24.2535 19.8906H24.8736L27.5934 27H26.6266ZM26.5045 24.3682V25.1396H22.5104V24.3682H26.5045ZM34.2377 19.8906V27H33.31V19.8906H34.2377ZM36.5229 19.8906V20.6621H31.0297V19.8906H36.5229ZM42.2199 19.8906V27H41.2775V19.8906H42.2199ZM45.1984 23.0889V23.8604H42.0148V23.0889H45.1984ZM45.6818 19.8906V20.6621H42.0148V19.8906H45.6818ZM55.9785 23.2207V23.6699C55.9785 24.2038 55.9118 24.6823 55.7783 25.1055C55.6449 25.5286 55.4528 25.8883 55.2021 26.1846C54.9515 26.4808 54.6504 26.707 54.2988 26.8633C53.9505 27.0195 53.5599 27.0977 53.127 27.0977C52.707 27.0977 52.3213 27.0195 51.9697 26.8633C51.6214 26.707 51.3187 26.4808 51.0615 26.1846C50.8076 25.8883 50.6107 25.5286 50.4707 25.1055C50.3307 24.6823 50.2607 24.2038 50.2607 23.6699V23.2207C50.2607 22.6868 50.3291 22.21 50.4658 21.79C50.6058 21.3669 50.8027 21.0072 51.0566 20.7109C51.3105 20.4115 51.6117 20.1836 51.96 20.0273C52.3115 19.8711 52.6973 19.793 53.1172 19.793C53.5501 19.793 53.9408 19.8711 54.2891 20.0273C54.6406 20.1836 54.9417 20.4115 55.1924 20.7109C55.4463 21.0072 55.64 21.3669 55.7734 21.79C55.9102 22.21 55.9785 22.6868 55.9785 23.2207ZM55.0459 23.6699V23.2109C55.0459 22.7878 55.002 22.4134 54.9141 22.0879C54.8294 21.7624 54.7041 21.4889 54.5381 21.2676C54.3721 21.0462 54.1686 20.8786 53.9277 20.7646C53.6901 20.6507 53.4199 20.5938 53.1172 20.5938C52.8242 20.5938 52.5589 20.6507 52.3213 20.7646C52.0869 20.8786 51.8851 21.0462 51.7158 21.2676C51.5498 21.4889 51.4212 21.7624 51.3301 22.0879C51.2389 22.4134 51.1934 22.7878 51.1934 23.2109V23.6699C51.1934 24.0964 51.2389 24.474 51.3301 24.8027C51.4212 25.1283 51.5514 25.4033 51.7207 25.6279C51.8932 25.8493 52.0967 26.0169 52.3311 26.1309C52.5687 26.2448 52.834 26.3018 53.127 26.3018C53.4329 26.3018 53.7048 26.2448 53.9424 26.1309C54.18 26.0169 54.3802 25.8493 54.543 25.6279C54.709 25.4033 54.8343 25.1283 54.9189 24.8027C55.0036 24.474 55.0459 24.0964 55.0459 23.6699ZM61.0896 19.8906H63.4432C63.977 19.8906 64.4279 19.972 64.7957 20.1348C65.1668 20.2975 65.4484 20.5384 65.6404 20.8574C65.8357 21.1732 65.9334 21.5622 65.9334 22.0244C65.9334 22.3499 65.8667 22.6478 65.7332 22.918C65.603 23.1849 65.4142 23.4128 65.1668 23.6016C64.9227 23.7871 64.6297 23.9255 64.2879 24.0166L64.0242 24.1191H61.8123L61.8025 23.3525H63.4725C63.811 23.3525 64.0926 23.2939 64.3172 23.1768C64.5418 23.0563 64.7111 22.8952 64.825 22.6934C64.9389 22.4915 64.9959 22.2686 64.9959 22.0244C64.9959 21.751 64.9422 21.5117 64.8348 21.3066C64.7273 21.1016 64.5581 20.9437 64.327 20.833C64.0991 20.7191 63.8045 20.6621 63.4432 20.6621H62.032V27H61.0896V19.8906ZM65.2449 27L63.5164 23.7773L64.4979 23.7725L66.2508 26.9414V27H65.2449ZM71.2496 19.8906H72.1627L74.4918 25.6865L76.816 19.8906H77.734L74.8434 27H74.1305L71.2496 19.8906ZM70.9518 19.8906H71.7574L71.8893 24.2266V27H70.9518V19.8906ZM77.2213 19.8906H78.027V27H77.0895V24.2266L77.2213 19.8906Z" fill="#524E53"/>
</svg>
